<?xml version="1.0" encoding="UTF-8"?>
<!-- Created with Inkscape (http://www.inkscape.org/) -->
<svg width="104.78mm" height="27.116mm" version="1.1" viewBox="0 0 104.78 27.116" xmlns="http://www.w3.org/2000/svg">
 <g transform="translate(-47.715 -134.94)">
  <g transform="matrix(.26458 0 0 .26458 0 11.545)" fill="#333" style="shape-inside:url(#rect407);white-space:pre" aria-label="Cology">
   <path d="m312.73 542.35q-11.792 0-18.5-6.0833-6.7083-6.125-6.7083-17.333 0-8.5833 2.5833-16 2.5833-7.4167 7.4167-13 4.7917-5.5 11.792-8.6667 7-3.2083 15.625-3.2083 5.375 0 10.167 1.3333 4.7917 1.2917 9.8333 4.125l-1.875 9.3333h-0.625q-1.375-1.375-2.7917-2.5417-1.375-1.2083-4.1667-2.625-2.2917-1.2083-5.4583-2-3.1667-0.83333-7-0.83333-5.8333 0-10.708 2.4583-4.875 2.4167-8.4583 6.7917-3.5 4.25-5.5 10.333-2 6.0833-2 12.958 0 8.5833 4.4583 13.375 4.4583 4.75 12.875 4.75 3.9583 0 7.5-0.875 3.5833-0.91667 6.5-2.2917 2.7083-1.2917 4.875-2.7083 2.1667-1.4167 3.7083-2.625h0.58333l-1.9583 9.5833q-4.375 2.2083-10.083 4-5.6667 1.75-12.083 1.75z"/>
   <path d="m389.73 511.15q0 6.25-1.9167 12-1.9167 5.75-5.4167 10-3.625 4.4167-8.375 6.9167-4.75 2.4583-11.083 2.4583-8.2917 0-12.958-4.7083-4.625-4.75-4.625-13.083 0-6.25 1.875-11.917 1.9167-5.6667 5.5-10.083 3.4583-4.25 8.4583-6.7917 5.0417-2.5417 11-2.5417 8.0417 0 12.792 4.5833 4.75 4.5833 4.75 13.167zm-12.75 17.583q2.25-3.3333 3.4167-7.7083 1.2083-4.375 1.2083-9.25 0-5.8333-2.7917-8.8333-2.7917-3-7.875-3-4.0417 0-7.25 1.9583-3.2083 1.9167-5.5417 5.2917-2.25 3.2917-3.4583 7.7083-1.2083 4.4167-1.2083 9.1667 0 5.75 2.7917 8.8333 2.7917 3.0833 7.9167 3.0833 4 0 7.25-1.9167 3.25-1.9167 5.5417-5.3333z"/>
   <path d="m418.73 476.4-15 64.833h-7.8333l15-64.833z"/>
   <path d="m465.06 511.15q0 6.25-1.9167 12-1.9167 5.75-5.4167 10-3.625 4.4167-8.375 6.9167-4.75 2.4583-11.083 2.4583-8.2917 0-12.958-4.7083-4.625-4.75-4.625-13.083 0-6.25 1.875-11.917 1.9167-5.6667 5.5-10.083 3.4583-4.25 8.4583-6.7917 5.0417-2.5417 11-2.5417 8.0417 0 12.792 4.5833 4.75 4.5833 4.75 13.167zm-12.75 17.583q2.25-3.3333 3.4167-7.7083 1.2083-4.375 1.2083-9.25 0-5.8333-2.7917-8.8333-2.7917-3-7.875-3-4.0417 0-7.25 1.9583-3.2083 1.9167-5.5417 5.2917-2.25 3.2917-3.4583 7.7083-1.2083 4.4167-1.2083 9.1667 0 5.75 2.7917 8.8333 2.7917 3.0833 7.9167 3.0833 4 0 7.25-1.9167 3.25-1.9167 5.5417-5.3333z"/>
   <path d="m519.52 494.69-9.4583 41.375q-2.75 11.833-9.0417 17.292-6.25 5.5-17.417 5.5-3.5833 0-7.25-0.54167-3.625-0.54166-6.6667-1.4583l1.7917-7.7917h0.41667q2.3333 1.0417 6.2917 2 3.9583 0.95833 7.4583 0.95833 3.9583 0 6.7083-1.0417 2.7917-1 4.5833-2.75 1.75-1.75 2.8333-4.0833 1.125-2.2917 1.75-5.1667l0.95834-4.0833q-4.2083 2.8333-7.4167 4.25-3.2083 1.375-8.2083 1.375-6.7917 0-10.625-4.125-3.8333-4.1667-3.8333-11.708 0-6.0417 1.9583-11.708 2-5.7083 5.5417-10.125 3.4583-4.2917 8.2917-6.875 4.875-2.5833 10.417-2.5833 4 0 7.125 0.91667 3.1667 0.91667 5.5 2.375l0.95834-2zm-9.75 8.375q-2.6667-1.375-5.5-2.125-2.7917-0.79167-5.6667-0.79167-4.0833 0-7.4583 1.875-3.3333 1.8333-5.75 5.125-2.2917 3.0833-3.5833 7.4583-1.25 4.3333-1.25 8.6667 0 4.9167 2.25 7.625 2.25 2.6667 7.2083 2.6667 3.4583 0 7-1.4583 3.5417-1.4583 6.9583-3.6667z"/>
   <path d="m532.56 558.4h-8.625l13.542-19.875-8.4167-43.833h8.0417l6.5833 34.625 22.25-34.625h8.5417z"/>
  </g>
  <g transform="matrix(.052043 0 0 .052043 48.215 135.18)">
   <path class="st0" d="m501.27 178.16c4.901-12.202 7.673-25.506 7.673-39.467 0-58.59-47.498-106.08-106.08-106.08-6.609 0-13.052 0.682-19.327 1.841-34.601-18.717-74.211-29.366-116.32-29.366-85.758 0-161.1 44.176-204.82 110.94-35.893 9.418-62.397 41.965-62.397 80.81 0 22.1 8.636 42.144 22.632 57.096 2.193 133.29 110.76 240.72 244.58 240.72 10.082 0 19.961-0.79 29.726-1.984 13.758 8.964 30.156 14.223 47.798 14.223 44.463 0 81.098-33.108 86.834-75.994 49.279-44.785 80.427-109.2 80.427-181.03 0-24.958-3.8-49.03-10.733-71.716zm-426.34 74.297c-26.45 0-47.894-24.885-47.894-55.614s21.443-55.616 47.894-55.616c26.444 0 47.888 24.886 47.888 55.616s-21.444 55.614-47.888 55.614zm117.67 175.45c-9.586 9.526-30.234 4.304-46.131-11.677-15.884-15.969-20.994-36.658-11.408-46.184 9.586-9.527 30.24-4.316 46.124 11.665 15.891 15.992 21.001 36.67 11.415 46.196zm182.14 44.977c-24.551 14.582-54.156 10.1-66.133-10.052-11.965-20.14-1.758-48.3 22.816-62.894 24.563-14.593 54.156-10.088 66.134 10.064 11.964 20.14 1.757 48.288-22.817 62.882zm-0.407-180.17c-38.032 0-68.846-30.826-68.846-68.846s30.814-68.834 68.846-68.834c38.02 0 68.834 30.814 68.834 68.834s-30.814 68.846-68.834 68.846z" fill="#4b4b4b"/>
  </g>
 </g>
 <style type="text/css">.st0{fill:#4B4B4B;}</style>
</svg>
