<?xml version="1.0" encoding="UTF-8" standalone="no"?>
<!-- Created with Inkscape (http://www.inkscape.org/) -->

<svg
   width="104.78142mm"
   height="27.115547mm"
   viewBox="0 0 104.78142 27.115547"
   version="1.1"
   id="svg5"
   inkscape:version="1.1.1 (c3084ef, 2021-09-22)"
   sodipodi:docname="inkscp.svg"
   xmlns:inkscape="http://www.inkscape.org/namespaces/inkscape"
   xmlns:sodipodi="http://sodipodi.sourceforge.net/DTD/sodipodi-0.dtd"
   xmlns="http://www.w3.org/2000/svg"
   xmlns:svg="http://www.w3.org/2000/svg">
  <sodipodi:namedview
     id="namedview7"
     pagecolor="#ffffff"
     bordercolor="#eeeeee"
     borderopacity="1"
     inkscape:pageshadow="0"
     inkscape:pageopacity="1"
     inkscape:pagecheckerboard="0"
     inkscape:document-units="mm"
     showgrid="false"
     fit-margin-top="0.5"
     fit-margin-left="0.5"
     fit-margin-right="0.5"
     fit-margin-bottom="0.5"
     inkscape:zoom="0.94044675"
     inkscape:cx="194.05671"
     inkscape:cy="-0.53166221"
     inkscape:window-width="1440"
     inkscape:window-height="847"
     inkscape:window-x="0"
     inkscape:window-y="25"
     inkscape:window-maximized="0"
     inkscape:current-layer="layer1" />
  <defs
     id="defs2">
    <rect
       x="281.97693"
       y="463.37613"
       width="339.44995"
       height="244.26028"
       id="rect407" />
  </defs>
  <g
     inkscape:label="Layer 1"
     inkscape:groupmode="layer"
     id="layer1"
     transform="translate(-47.715468,-134.94223)">
    <g
       aria-label="Cology"
       transform="matrix(0.26458333,0,0,0.26458333,0,11.545067)"
       id="text405"
       style="font-size:40px;line-height:1.25;white-space:pre;shape-inside:url(#rect407);fill:#333333">
      <path
         d="m 312.72655,542.35411 q -11.79166,0 -18.49999,-6.08333 -6.70833,-6.125 -6.70833,-17.33333 0,-8.58333 2.58333,-15.99999 2.58333,-7.41667 7.41666,-13 4.79167,-5.5 11.79166,-8.66666 7,-3.20833 15.625,-3.20833 5.375,0 10.16666,1.33333 4.79167,1.29167 9.83333,4.125 l -1.875,9.33333 h -0.625 q -1.375,-1.375 -2.79166,-2.54167 -1.375,-1.20833 -4.16667,-2.625 -2.29167,-1.20833 -5.45833,-2 -3.16667,-0.83333 -7,-0.83333 -5.83333,0 -10.70833,2.45833 -4.87499,2.41667 -8.45833,6.79167 -3.5,4.25 -5.49999,10.33333 -2,6.08333 -2,12.95832 0,8.58333 4.45833,13.375 4.45833,4.75 12.87499,4.75 3.95833,0 7.5,-0.875 3.58333,-0.91667 6.5,-2.29167 2.70833,-1.29166 4.87499,-2.70833 2.16667,-1.41667 3.70834,-2.625 h 0.58333 l -1.95833,9.58333 q -4.375,2.20833 -10.08333,4 -5.66667,1.75 -12.08333,1.75 z"
         style="font-style:italic;font-weight:500;font-size:85.3333px;font-family:Sans;-inkscape-font-specification:'Sans, Medium Italic';fill:#333333"
         id="path11964" />
      <path
         d="m 389.72652,511.14579 q 0,6.24999 -1.91667,11.99999 -1.91666,5.75 -5.41666,10 -3.625,4.41666 -8.375,6.91666 -4.75,2.45833 -11.08333,2.45833 -8.29166,0 -12.95833,-4.70833 -4.62499,-4.75 -4.62499,-13.08333 0,-6.24999 1.87499,-11.91666 1.91667,-5.66666 5.5,-10.08333 3.45833,-4.24999 8.45833,-6.79166 5.04167,-2.54167 11,-2.54167 8.04166,0 12.79166,4.58334 4.75,4.58333 4.75,13.16666 z m -12.75,17.58332 q 2.25,-3.33333 3.41667,-7.70833 1.20833,-4.375 1.20833,-9.24999 0,-5.83333 -2.79167,-8.83333 -2.79166,-3 -7.87499,-3 -4.04167,0 -7.25,1.95833 -3.20833,1.91667 -5.54166,5.29167 -2.25,3.29166 -3.45834,7.70833 -1.20833,4.41666 -1.20833,9.16666 0,5.75 2.79167,8.83333 2.79166,3.08333 7.91666,3.08333 4,0 7.25,-1.91667 3.25,-1.91666 5.54166,-5.33333 z"
         style="font-style:italic;font-weight:500;font-size:85.3333px;font-family:Sans;-inkscape-font-specification:'Sans, Medium Italic';fill:#333333"
         id="path11966" />
      <path
         d="m 418.72651,476.3958 -15,64.83331 h -7.83333 l 15,-64.83331 z"
         style="font-style:italic;font-weight:500;font-size:85.3333px;font-family:Sans;-inkscape-font-specification:'Sans, Medium Italic';fill:#333333"
         id="path11968" />
      <path
         d="m 465.05981,511.14579 q 0,6.24999 -1.91666,11.99999 -1.91667,5.75 -5.41667,10 -3.62499,4.41666 -8.37499,6.91666 -4.75,2.45833 -11.08333,2.45833 -8.29166,0 -12.95833,-4.70833 -4.625,-4.75 -4.625,-13.08333 0,-6.24999 1.875,-11.91666 1.91667,-5.66666 5.5,-10.08333 3.45833,-4.24999 8.45833,-6.79166 5.04166,-2.54167 11,-2.54167 8.04166,0 12.79166,4.58334 4.74999,4.58333 4.74999,13.16666 z m -12.74999,17.58332 q 2.25,-3.33333 3.41667,-7.70833 1.20833,-4.375 1.20833,-9.24999 0,-5.83333 -2.79167,-8.83333 -2.79166,-3 -7.87499,-3 -4.04167,0 -7.25,1.95833 -3.20833,1.91667 -5.54167,5.29167 -2.24999,3.29166 -3.45833,7.70833 -1.20833,4.41666 -1.20833,9.16666 0,5.75 2.79167,8.83333 2.79166,3.08333 7.91666,3.08333 4,0 7.25,-1.91667 3.24999,-1.91666 5.54166,-5.33333 z"
         style="font-style:italic;font-weight:500;font-size:85.3333px;font-family:Sans;-inkscape-font-specification:'Sans, Medium Italic';fill:#333333"
         id="path11970" />
      <path
         d="m 519.51813,494.68746 -9.45833,41.37498 q -2.75,11.83333 -9.04167,17.29166 -6.24999,5.5 -17.41666,5.5 -3.58333,0 -7.24999,-0.54167 -3.625,-0.54166 -6.66667,-1.45833 l 1.79167,-7.79166 h 0.41667 q 2.33333,1.04166 6.29166,2 3.95833,0.95833 7.45833,0.95833 3.95833,0 6.70833,-1.04167 2.79167,-1 4.58333,-2.75 1.75,-1.74999 2.83333,-4.08333 1.125,-2.29166 1.75,-5.16666 l 0.95834,-4.08333 q -4.20833,2.83333 -7.41667,4.25 -3.20833,1.37499 -8.20833,1.37499 -6.79166,0 -10.62499,-4.12499 -3.83333,-4.16667 -3.83333,-11.70833 0,-6.04167 1.95833,-11.70833 2,-5.70833 5.54166,-10.125 3.45834,-4.29166 8.29167,-6.87499 4.87499,-2.58334 10.41666,-2.58334 4,0 7.125,0.91667 3.16666,0.91667 5.49999,2.375 l 0.95834,-2 z m -9.75,8.375 q -2.66666,-1.375 -5.5,-2.125 -2.79166,-0.79167 -5.66666,-0.79167 -4.08333,0 -7.45833,1.875 -3.33333,1.83333 -5.75,5.125 -2.29166,3.08333 -3.58333,7.45833 -1.25,4.33333 -1.25,8.66666 0,4.91667 2.25,7.625 2.25,2.66666 7.20833,2.66666 3.45833,0 7,-1.45833 3.54166,-1.45833 6.95833,-3.66666 z"
         style="font-style:italic;font-weight:500;font-size:85.3333px;font-family:Sans;-inkscape-font-specification:'Sans, Medium Italic';fill:#333333"
         id="path11972" />
      <path
         d="m 532.55979,558.39577 h -8.62499 l 13.54166,-19.87499 -8.41666,-43.83332 h 8.04166 l 6.58333,34.62499 22.24999,-34.62499 h 8.54166 z"
         style="font-style:italic;font-weight:500;font-size:85.3333px;font-family:Sans;-inkscape-font-specification:'Sans, Medium Italic';fill:#333333"
         id="path11974" />
    </g>
    <g
       style="opacity:1"
       id="g12445"
       transform="matrix(0.0520427,0,0,0.0520427,48.215468,135.17707)">
      <g
         id="g12435">
	<path
   class="st0"
   d="m 501.267,178.165 c 4.901,-12.202 7.673,-25.506 7.673,-39.467 0,-58.59 -47.498,-106.078 -106.078,-106.078 -6.609,0 -13.052,0.682 -19.327,1.841 C 348.934,15.744 309.324,5.095 267.214,5.095 181.456,5.095 106.113,49.271 62.397,116.038 26.504,125.456 0,158.003 0,196.848 c 0,22.1 8.636,42.144 22.632,57.096 2.193,133.294 110.757,240.722 244.583,240.722 10.082,0 19.961,-0.79 29.726,-1.984 13.758,8.964 30.156,14.223 47.798,14.223 44.463,0 81.098,-33.108 86.834,-75.994 C 480.852,386.126 512,321.714 512,249.881 c 0,-24.958 -3.8,-49.03 -10.733,-71.716 z M 74.924,252.462 c -26.45,0 -47.894,-24.885 -47.894,-55.614 0,-30.729 21.443,-55.616 47.894,-55.616 26.444,0 47.888,24.886 47.888,55.616 0,30.73 -21.444,55.614 -47.888,55.614 z m 117.666,175.45 c -9.586,9.526 -30.234,4.304 -46.131,-11.677 -15.884,-15.969 -20.994,-36.658 -11.408,-46.184 9.586,-9.527 30.24,-4.316 46.124,11.665 15.891,15.992 21.001,36.67 11.415,46.196 z m 182.137,44.977 c -24.551,14.582 -54.156,10.1 -66.133,-10.052 -11.965,-20.14 -1.758,-48.3 22.816,-62.894 24.563,-14.593 54.156,-10.088 66.134,10.064 11.964,20.14 1.757,48.288 -22.817,62.882 z M 374.32,292.718 c -38.032,0 -68.846,-30.826 -68.846,-68.846 0,-38.02 30.814,-68.834 68.846,-68.834 38.02,0 68.834,30.814 68.834,68.834 0,38.02 -30.814,68.846 -68.834,68.846 z"
   style="fill:#4b4b4b"
   id="path12433" />

</g>
    </g>
  </g>
  <style
     type="text/css"
     id="style12431">
	.st0{fill:#4B4B4B;}
</style>
</svg>
